<mxfile host="app.diagrams.net" modified="2022-02-09T22:06:26.423Z" agent="5.0 (Windows NT 10.0; Win64; x64) AppleWebKit/537.36 (KHTML, like Gecko) Chrome/98.0.4758.82 Safari/537.36" etag="rjLprxCdrr3fmVOZ-nx1" version="16.5.5" type="github">
  <diagram id="0ldn6Xo56QnP--ExgYZt" name="Page-1">
    <mxGraphModel dx="1038" dy="547" grid="1" gridSize="10" guides="1" tooltips="1" connect="1" arrows="1" fold="1" page="1" pageScale="1" pageWidth="827" pageHeight="1169" math="0" shadow="0">
      <root>
        <mxCell id="0" />
        <mxCell id="1" parent="0" />
        <mxCell id="xie1MXOGvQKOGX-ytAos-14" value="" style="edgeStyle=orthogonalEdgeStyle;rounded=0;orthogonalLoop=1;jettySize=auto;html=1;endArrow=block;endFill=0;exitX=1;exitY=0.5;exitDx=0;exitDy=0;entryX=0.5;entryY=1;entryDx=0;entryDy=0;" parent="1" source="xie1MXOGvQKOGX-ytAos-29" target="xie1MXOGvQKOGX-ytAos-9" edge="1">
          <mxGeometry relative="1" as="geometry">
            <mxPoint x="345" y="530" as="sourcePoint" />
            <mxPoint x="505" y="530" as="targetPoint" />
          </mxGeometry>
        </mxCell>
        <mxCell id="xie1MXOGvQKOGX-ytAos-8" value="Üniversite" style="swimlane;fontStyle=1;align=center;verticalAlign=middle;childLayout=stackLayout;horizontal=1;startSize=29;horizontalStack=0;resizeParent=1;resizeParentMax=0;resizeLast=0;collapsible=0;marginBottom=0;html=1;" parent="1" vertex="1">
          <mxGeometry x="330" y="186" width="140" height="54" as="geometry" />
        </mxCell>
        <mxCell id="xie1MXOGvQKOGX-ytAos-9" value="Çalışanlar" style="swimlane;fontStyle=1;align=center;verticalAlign=middle;childLayout=stackLayout;horizontal=1;startSize=29;horizontalStack=0;resizeParent=1;resizeParentMax=0;resizeLast=0;collapsible=0;marginBottom=0;html=1;" parent="1" vertex="1">
          <mxGeometry x="325" y="400" width="140" height="54" as="geometry" />
        </mxCell>
        <mxCell id="xie1MXOGvQKOGX-ytAos-10" value="Sınıflık" style="swimlane;fontStyle=1;align=center;verticalAlign=middle;childLayout=stackLayout;horizontal=1;startSize=29;horizontalStack=0;resizeParent=1;resizeParentMax=0;resizeLast=0;collapsible=0;marginBottom=0;html=1;" parent="1" vertex="1">
          <mxGeometry x="70" y="30" width="140" height="54" as="geometry" />
        </mxCell>
        <mxCell id="xie1MXOGvQKOGX-ytAos-11" value="Departman" style="swimlane;fontStyle=1;align=center;verticalAlign=middle;childLayout=stackLayout;horizontal=1;startSize=29;horizontalStack=0;resizeParent=1;resizeParentMax=0;resizeLast=0;collapsible=0;marginBottom=0;html=1;" parent="1" vertex="1">
          <mxGeometry x="610" y="30" width="140" height="54" as="geometry" />
        </mxCell>
        <mxCell id="xie1MXOGvQKOGX-ytAos-12" value="Ofis" style="swimlane;fontStyle=1;align=center;verticalAlign=middle;childLayout=stackLayout;horizontal=1;startSize=29;horizontalStack=0;resizeParent=1;resizeParentMax=0;resizeLast=0;collapsible=0;marginBottom=0;html=1;" parent="1" vertex="1">
          <mxGeometry x="540" y="270" width="140" height="54" as="geometry" />
        </mxCell>
        <mxCell id="xie1MXOGvQKOGX-ytAos-17" value="" style="endArrow=none;html=1;rounded=0;endFill=0;entryX=0.5;entryY=1;entryDx=0;entryDy=0;exitX=1;exitY=0.5;exitDx=0;exitDy=0;" parent="1" source="xie1MXOGvQKOGX-ytAos-12" target="xie1MXOGvQKOGX-ytAos-11" edge="1">
          <mxGeometry relative="1" as="geometry">
            <mxPoint x="520" y="310" as="sourcePoint" />
            <mxPoint x="600" y="320" as="targetPoint" />
          </mxGeometry>
        </mxCell>
        <mxCell id="xie1MXOGvQKOGX-ytAos-18" value="*" style="edgeLabel;resizable=0;html=1;align=center;verticalAlign=middle;fontSize=16;" parent="xie1MXOGvQKOGX-ytAos-17" connectable="0" vertex="1">
          <mxGeometry relative="1" as="geometry">
            <mxPoint x="10" y="-90" as="offset" />
          </mxGeometry>
        </mxCell>
        <mxCell id="xie1MXOGvQKOGX-ytAos-19" value="*" style="edgeLabel;resizable=0;html=1;align=left;verticalAlign=bottom;fontSize=16;" parent="xie1MXOGvQKOGX-ytAos-17" connectable="0" vertex="1">
          <mxGeometry x="-1" relative="1" as="geometry">
            <mxPoint x="10" y="-37" as="offset" />
          </mxGeometry>
        </mxCell>
        <mxCell id="xie1MXOGvQKOGX-ytAos-20" value="" style="endArrow=none;html=1;rounded=0;endFill=0;exitX=1;exitY=0.5;exitDx=0;exitDy=0;entryX=0.5;entryY=0;entryDx=0;entryDy=0;" parent="1" source="xie1MXOGvQKOGX-ytAos-8" target="xie1MXOGvQKOGX-ytAos-12" edge="1">
          <mxGeometry relative="1" as="geometry">
            <mxPoint x="420" y="252.5" as="sourcePoint" />
            <mxPoint x="420" y="290" as="targetPoint" />
            <Array as="points">
              <mxPoint x="610" y="213" />
            </Array>
          </mxGeometry>
        </mxCell>
        <mxCell id="xie1MXOGvQKOGX-ytAos-21" value="1" style="edgeLabel;resizable=0;html=1;align=center;verticalAlign=middle;fontSize=16;" parent="xie1MXOGvQKOGX-ytAos-20" connectable="0" vertex="1">
          <mxGeometry relative="1" as="geometry">
            <mxPoint x="10" y="-15" as="offset" />
          </mxGeometry>
        </mxCell>
        <mxCell id="xie1MXOGvQKOGX-ytAos-22" value="1" style="edgeLabel;resizable=0;html=1;align=left;verticalAlign=bottom;fontSize=16;" parent="xie1MXOGvQKOGX-ytAos-20" connectable="0" vertex="1">
          <mxGeometry x="-1" relative="1" as="geometry">
            <mxPoint x="-50" y="-53" as="offset" />
          </mxGeometry>
        </mxCell>
        <mxCell id="xie1MXOGvQKOGX-ytAos-23" value="" style="endArrow=none;html=1;rounded=0;endFill=0;entryX=1;entryY=0.5;entryDx=0;entryDy=0;exitX=0.5;exitY=0;exitDx=0;exitDy=0;" parent="1" source="xie1MXOGvQKOGX-ytAos-8" target="xie1MXOGvQKOGX-ytAos-10" edge="1">
          <mxGeometry relative="1" as="geometry">
            <mxPoint x="400" y="240" as="sourcePoint" />
            <mxPoint x="410" y="300" as="targetPoint" />
            <Array as="points" />
          </mxGeometry>
        </mxCell>
        <mxCell id="xie1MXOGvQKOGX-ytAos-24" value="*" style="edgeLabel;resizable=0;html=1;align=center;verticalAlign=middle;fontSize=16;" parent="xie1MXOGvQKOGX-ytAos-23" connectable="0" vertex="1">
          <mxGeometry relative="1" as="geometry">
            <mxPoint x="-85" y="-71" as="offset" />
          </mxGeometry>
        </mxCell>
        <mxCell id="xie1MXOGvQKOGX-ytAos-25" value="*" style="edgeLabel;resizable=0;html=1;align=left;verticalAlign=bottom;fontSize=16;" parent="xie1MXOGvQKOGX-ytAos-23" connectable="0" vertex="1">
          <mxGeometry x="-1" relative="1" as="geometry">
            <mxPoint x="180" y="-116" as="offset" />
          </mxGeometry>
        </mxCell>
        <mxCell id="xie1MXOGvQKOGX-ytAos-26" value="" style="endArrow=none;html=1;rounded=0;endFill=0;exitX=0.5;exitY=1;exitDx=0;exitDy=0;entryX=1;entryY=0.5;entryDx=0;entryDy=0;" parent="1" source="xie1MXOGvQKOGX-ytAos-12" target="xie1MXOGvQKOGX-ytAos-9" edge="1">
          <mxGeometry relative="1" as="geometry">
            <mxPoint x="310" y="397" as="sourcePoint" />
            <mxPoint x="400" y="400" as="targetPoint" />
            <Array as="points">
              <mxPoint x="610" y="427" />
            </Array>
          </mxGeometry>
        </mxCell>
        <mxCell id="xie1MXOGvQKOGX-ytAos-27" value="1" style="edgeLabel;resizable=0;html=1;align=center;verticalAlign=middle;fontSize=16;" parent="xie1MXOGvQKOGX-ytAos-26" connectable="0" vertex="1">
          <mxGeometry relative="1" as="geometry">
            <mxPoint x="11" y="-87" as="offset" />
          </mxGeometry>
        </mxCell>
        <mxCell id="xie1MXOGvQKOGX-ytAos-28" value="*" style="edgeLabel;resizable=0;html=1;align=left;verticalAlign=bottom;fontSize=16;" parent="xie1MXOGvQKOGX-ytAos-26" connectable="0" vertex="1">
          <mxGeometry x="-1" relative="1" as="geometry">
            <mxPoint x="-230" y="76" as="offset" />
          </mxGeometry>
        </mxCell>
        <mxCell id="xie1MXOGvQKOGX-ytAos-29" value="Profesör" style="swimlane;fontStyle=1;align=center;verticalAlign=middle;childLayout=stackLayout;horizontal=1;startSize=29;horizontalStack=0;resizeParent=1;resizeParentMax=0;resizeLast=0;collapsible=0;marginBottom=0;html=1;" parent="1" vertex="1">
          <mxGeometry x="185" y="511" width="140" height="54" as="geometry" />
        </mxCell>
        <mxCell id="xie1MXOGvQKOGX-ytAos-30" value="Memur" style="swimlane;fontStyle=1;align=center;verticalAlign=middle;childLayout=stackLayout;horizontal=1;startSize=29;horizontalStack=0;resizeParent=1;resizeParentMax=0;resizeLast=0;collapsible=0;marginBottom=0;html=1;" parent="1" vertex="1">
          <mxGeometry x="475" y="511" width="140" height="54" as="geometry" />
        </mxCell>
        <mxCell id="xie1MXOGvQKOGX-ytAos-31" value="" style="edgeStyle=orthogonalEdgeStyle;rounded=0;orthogonalLoop=1;jettySize=auto;html=1;endArrow=block;endFill=0;exitX=0;exitY=0.5;exitDx=0;exitDy=0;entryX=0.5;entryY=1;entryDx=0;entryDy=0;" parent="1" source="xie1MXOGvQKOGX-ytAos-30" target="xie1MXOGvQKOGX-ytAos-9" edge="1">
          <mxGeometry relative="1" as="geometry">
            <mxPoint x="335" y="548" as="sourcePoint" />
            <mxPoint x="405" y="464" as="targetPoint" />
          </mxGeometry>
        </mxCell>
        <mxCell id="xie1MXOGvQKOGX-ytAos-32" value="" style="endArrow=none;html=1;rounded=0;endFill=0;exitX=0.5;exitY=0;exitDx=0;exitDy=0;entryX=0;entryY=0.5;entryDx=0;entryDy=0;" parent="1" source="xie1MXOGvQKOGX-ytAos-8" target="xie1MXOGvQKOGX-ytAos-11" edge="1">
          <mxGeometry relative="1" as="geometry">
            <mxPoint x="400" y="240" as="sourcePoint" />
            <mxPoint x="610" y="320" as="targetPoint" />
          </mxGeometry>
        </mxCell>
        <mxCell id="xie1MXOGvQKOGX-ytAos-33" value="*" style="edgeLabel;resizable=0;html=1;align=center;verticalAlign=middle;fontSize=16;" parent="xie1MXOGvQKOGX-ytAos-32" connectable="0" vertex="1">
          <mxGeometry relative="1" as="geometry">
            <mxPoint x="115" y="138" as="offset" />
          </mxGeometry>
        </mxCell>
        <mxCell id="xie1MXOGvQKOGX-ytAos-34" value="1" style="edgeLabel;resizable=0;html=1;align=left;verticalAlign=bottom;fontSize=16;" parent="xie1MXOGvQKOGX-ytAos-32" connectable="0" vertex="1">
          <mxGeometry x="-1" relative="1" as="geometry">
            <mxPoint x="-40" y="-26" as="offset" />
          </mxGeometry>
        </mxCell>
        <mxCell id="xie1MXOGvQKOGX-ytAos-35" value="" style="endArrow=none;html=1;rounded=0;endFill=0;exitX=0.5;exitY=1;exitDx=0;exitDy=0;" parent="1" source="xie1MXOGvQKOGX-ytAos-8" edge="1">
          <mxGeometry relative="1" as="geometry">
            <mxPoint x="410" y="354" as="sourcePoint" />
            <mxPoint x="400" y="400" as="targetPoint" />
            <Array as="points" />
          </mxGeometry>
        </mxCell>
        <mxCell id="xie1MXOGvQKOGX-ytAos-36" value="1" style="edgeLabel;resizable=0;html=1;align=center;verticalAlign=middle;fontSize=16;" parent="xie1MXOGvQKOGX-ytAos-35" connectable="0" vertex="1">
          <mxGeometry relative="1" as="geometry">
            <mxPoint x="-20" y="-60" as="offset" />
          </mxGeometry>
        </mxCell>
        <mxCell id="xie1MXOGvQKOGX-ytAos-37" value="*" style="edgeLabel;resizable=0;html=1;align=left;verticalAlign=bottom;fontSize=16;" parent="xie1MXOGvQKOGX-ytAos-35" connectable="0" vertex="1">
          <mxGeometry x="-1" relative="1" as="geometry">
            <mxPoint x="80" y="180" as="offset" />
          </mxGeometry>
        </mxCell>
      </root>
    </mxGraphModel>
  </diagram>
</mxfile>
